<?xml version="1.0" standalone="no"?>
<!DOCTYPE svg PUBLIC "-//W3C//DTD SVG 20010904//EN"
 "http://www.w3.org/TR/2001/REC-SVG-20010904/DTD/svg10.dtd">
<svg version="1.0" xmlns="http://www.w3.org/2000/svg"
 width="4194.000000pt" height="4194.000000pt" viewBox="0 0 4194.000000 4194.000000"
 preserveAspectRatio="xMidYMid meet">
<metadata>
Created by potrace 1.11, written by Peter Selinger 2001-2013
</metadata>
<g transform="translate(0.000000,4194.000000) scale(0.100000,-0.100000)"
fill="#000000" stroke="none">
<path d="M41909 34211 c-13 -10 -43 -29 -66 -42 -23 -13 -68 -40 -100 -60
-418 -259 -628 -359 -1053 -500 -148 -49 -504 -147 -590 -163 -14 -2 -69 -14
-124 -26 -54 -12 -106 -23 -115 -25 -9 -1 -54 -10 -101 -19 -47 -9 -96 -18
-110 -21 -14 -3 -72 -12 -130 -20 -58 -9 -114 -18 -125 -20 -22 -5 -62 -11
-140 -20 -27 -3 -75 -10 -105 -15 -30 -5 -100 -14 -155 -20 -55 -6 -113 -13
-130 -15 -16 -2 -61 -7 -100 -10 -38 -4 -81 -8 -95 -10 -14 -2 -50 -7 -80 -10
-30 -3 -71 -8 -90 -10 -19 -2 -64 -7 -100 -10 -36 -3 -92 -8 -125 -11 -33 -3
-85 -7 -115 -10 -30 -2 -77 -6 -105 -8 -27 -3 -84 -8 -125 -11 -41 -3 -91 -8
-110 -10 -19 -2 -82 -7 -140 -10 -58 -4 -121 -8 -140 -10 -19 -2 -87 -7 -150
-10 -63 -4 -131 -9 -150 -10 -120 -9 -302 -21 -485 -30 -60 -3 -144 -8 -185
-10 -41 -3 -115 -7 -165 -10 -116 -6 -250 -14 -345 -20 -41 -3 -115 -7 -165
-10 -274 -16 -331 -20 -445 -30 -30 -3 -82 -7 -115 -10 -33 -3 -76 -7 -95 -10
-19 -2 -57 -7 -85 -10 -71 -7 -120 -14 -195 -26 -191 -30 -241 -39 -335 -60
-49 -12 -97 -22 -106 -24 -40 -8 -157 -37 -179 -45 -14 -5 -65 -21 -115 -35
-49 -15 -103 -32 -120 -38 -16 -6 -34 -12 -40 -13 -20 -3 -300 -116 -309 -125
-6 -5 -16 -9 -23 -9 -21 0 -454 -219 -545 -277 -21 -13 -40 -23 -42 -23 -3 0
-24 -13 -48 -29 -24 -16 -65 -41 -93 -56 -94 -52 -419 -268 -660 -438 -132
-94 -242 -173 -245 -176 -12 -14 -320 -241 -327 -241 -5 0 -9 143 -10 318 -1
174 -4 497 -7 717 -2 220 -5 527 -6 682 -1 165 -5 285 -11 288 -5 4 -21 -1
-36 -9 -16 -8 -80 -38 -143 -67 -141 -63 -679 -335 -701 -355 -8 -8 -19 -14
-23 -14 -24 0 -633 -353 -876 -508 -236 -150 -606 -399 -675 -454 -5 -5 -77
-59 -160 -120 -138 -103 -373 -285 -385 -298 -3 -3 -45 -39 -95 -80 -49 -41
-92 -77 -95 -80 -3 -3 -43 -39 -90 -80 -154 -136 -173 -153 -365 -345 -105
-104 -229 -233 -276 -285 -46 -52 -90 -100 -96 -108 -7 -7 -61 -72 -121 -145
-369 -451 -647 -928 -801 -1379 -44 -128 -95 -302 -93 -315 1 -2 -4 -17 -9
-35 -18 -63 -58 -316 -65 -409 -4 -52 -9 -96 -11 -99 -14 -16 -174 245 -280
460 -153 307 -284 667 -358 980 -18 75 -27 118 -31 135 -2 11 -11 54 -19 95
-8 41 -17 86 -20 100 -3 14 -7 36 -10 50 -3 14 -7 42 -10 63 -14 105 -22 147
-29 154 -3 3 -22 0 -43 -7 -49 -16 -319 -117 -358 -135 -16 -7 -87 -39 -157
-69 -161 -70 -509 -242 -647 -319 -58 -33 -123 -69 -144 -81 -241 -134 -599
-368 -867 -569 -96 -72 -184 -139 -195 -148 -11 -10 -58 -48 -105 -85 -47 -37
-87 -70 -90 -74 -3 -3 -32 -28 -65 -55 -33 -28 -65 -54 -71 -60 -257 -232
-551 -524 -705 -701 -46 -52 -143 -164 -169 -194 -8 -10 -27 -33 -41 -51 -15
-19 -62 -79 -106 -134 -433 -548 -821 -1233 -1090 -1925 -98 -251 -263 -785
-299 -963 -2 -10 -5 -26 -8 -35 -3 -9 -7 -28 -10 -42 -2 -14 -9 -43 -14 -65
-6 -22 -13 -53 -16 -70 -3 -16 -10 -55 -16 -85 -7 -30 -14 -68 -17 -84 -7 -41
-22 -76 -22 -54 -1 9 -4 18 -9 20 -16 7 -115 148 -185 267 -124 209 -196 347
-293 569 -8 17 -21 47 -29 66 -41 94 -115 293 -179 484 l-72 213 -105 -108
c-123 -125 -319 -347 -455 -516 -49 -61 -260 -336 -273 -357 -8 -14 -18 -27
-21 -30 -5 -4 -57 -76 -142 -198 -13 -18 -37 -52 -53 -75 -92 -128 -431 -660
-507 -797 -14 -25 -52 -90 -84 -145 -33 -55 -63 -107 -67 -115 -4 -8 -18 -33
-30 -55 -13 -22 -47 -85 -76 -140 -30 -55 -58 -105 -62 -110 -13 -17 -329
-648 -388 -775 -30 -63 -68 -146 -86 -185 -141 -300 -388 -903 -540 -1315 -53
-146 -101 -274 -105 -285 -30 -73 -238 -713 -290 -890 -10 -33 -36 -121 -59
-195 -23 -74 -44 -144 -46 -155 -3 -11 -16 -60 -31 -110 -43 -152 -170 -631
-189 -715 -2 -8 -16 -64 -30 -125 -15 -60 -28 -117 -30 -125 -2 -8 -13 -55
-24 -105 -51 -212 -168 -767 -197 -930 -2 -11 -5 -32 -8 -48 -3 -15 -7 -35
-10 -45 -3 -9 -7 -35 -11 -56 -3 -21 -7 -48 -10 -60 -3 -12 -7 -33 -9 -49 -3
-15 -10 -53 -15 -85 -12 -64 -13 -72 -46 -267 -24 -145 -35 -214 -40 -252 -4
-27 -16 -100 -21 -128 -3 -11 -7 -38 -10 -60 -2 -22 -7 -51 -9 -65 -2 -14 -6
-45 -10 -70 -3 -25 -8 -56 -10 -70 -3 -14 -7 -43 -10 -65 -2 -22 -9 -71 -15
-110 -5 -38 -12 -90 -15 -115 -4 -25 -8 -56 -10 -70 -2 -14 -6 -47 -10 -75 -3
-27 -10 -86 -16 -130 -16 -126 -18 -146 -24 -215 -4 -35 -8 -67 -10 -70 -1 -3
-6 -45 -10 -95 -4 -49 -8 -92 -10 -95 -1 -3 -6 -42 -9 -86 -4 -45 -9 -93 -11
-105 -2 -13 -6 -53 -10 -89 -6 -64 -7 -84 -20 -225 -3 -38 -8 -92 -10 -120 -3
-27 -7 -81 -10 -120 -3 -38 -7 -92 -10 -120 -7 -80 -15 -193 -20 -290 -3 -49
-7 -112 -10 -140 -2 -27 -7 -102 -10 -165 -3 -63 -8 -149 -11 -190 -8 -131
-13 -240 -19 -420 -4 -96 -8 -209 -10 -250 -8 -156 -17 -799 -18 -1160 0 -493
16 -1306 26 -1317 2 -2 94 117 204 264 275 367 521 688 653 849 14 17 47 60
75 95 27 35 52 66 55 69 3 3 59 72 125 155 101 125 232 286 303 370 9 11 46
56 82 100 36 44 77 93 91 110 15 16 134 156 265 310 131 154 250 293 265 310
46 52 242 275 293 334 26 31 67 76 90 101 22 25 59 65 80 90 22 25 64 72 95
106 31 33 86 94 122 135 79 88 106 117 168 184 25 28 100 109 165 180 66 72
127 137 135 146 9 9 81 85 161 169 470 495 560 589 855 888 165 167 348 352
406 411 103 103 728 716 820 802 25 24 117 112 205 195 87 84 175 166 194 184
19 18 96 90 170 161 74 70 149 140 166 156 17 15 77 71 134 123 56 52 112 103
123 113 12 10 48 44 82 75 97 91 286 265 307 284 25 21 154 136 228 203 132
118 224 201 240 215 37 33 175 156 190 170 9 8 49 44 90 80 41 36 80 70 86 75
9 9 39 35 140 122 12 10 50 43 85 74 35 31 84 74 109 95 25 22 61 53 80 70 19
18 105 92 191 165 154 132 241 206 534 454 83 70 161 137 175 149 32 27 199
166 223 186 10 8 31 25 45 38 15 13 43 35 62 50 19 15 37 29 40 33 10 11 548
453 625 514 21 17 80 64 130 105 50 41 109 89 130 105 21 17 65 53 99 80 34
28 79 64 100 80 21 17 46 37 56 45 45 37 60 49 145 115 49 39 99 77 110 87 29
23 433 343 502 396 23 18 50 39 244 189 501 388 1225 935 1679 1268 74 54 167
122 205 150 100 75 365 267 395 287 20 14 324 233 405 292 40 29 484 343 601
424 287 201 474 330 529 367 33 22 62 42 65 45 3 3 34 26 70 50 36 24 86 58
113 77 201 141 1263 845 1562 1035 99 63 206 131 238 152 31 20 57 35 57 32 0
-2 -98 -86 -217 -187 -120 -100 -225 -190 -234 -198 -9 -9 -36 -32 -60 -51
-61 -49 -713 -608 -809 -694 -19 -17 -84 -73 -145 -125 -60 -52 -117 -101
-126 -110 -18 -18 -28 -27 -209 -186 -69 -60 -127 -112 -130 -115 -3 -3 -43
-39 -90 -80 -47 -41 -87 -77 -90 -80 -3 -3 -41 -36 -85 -75 -44 -38 -96 -84
-115 -102 -19 -18 -47 -42 -61 -55 -48 -43 -213 -193 -240 -218 -15 -14 -40
-36 -55 -50 -78 -69 -261 -235 -275 -249 -9 -9 -56 -52 -104 -96 -48 -44 -104
-95 -124 -114 -20 -18 -80 -74 -135 -125 -54 -50 -113 -104 -130 -121 -18 -16
-86 -79 -151 -140 -66 -60 -134 -123 -151 -140 -39 -37 -311 -295 -369 -350
-24 -22 -96 -90 -161 -152 -225 -212 -666 -638 -1037 -1003 -626 -616 -1609
-1609 -1998 -2020 -34 -36 -138 -146 -233 -244 -257 -269 -253 -265 -368 -387
-59 -63 -128 -137 -155 -165 -83 -88 -289 -308 -319 -340 -16 -17 -51 -56 -79
-86 -139 -150 -282 -305 -295 -319 -13 -13 -151 -163 -230 -249 -70 -77 -187
-205 -203 -224 -10 -12 -55 -61 -100 -110 -45 -49 -86 -94 -92 -100 -48 -53
-183 -203 -195 -216 -8 -9 -44 -49 -80 -90 -36 -41 -74 -83 -85 -95 -11 -11
-69 -77 -130 -145 -60 -69 -117 -132 -125 -141 -22 -23 -75 -82 -155 -174 -38
-44 -72 -82 -75 -85 -3 -3 -37 -41 -75 -85 -39 -44 -74 -85 -80 -91 -5 -6 -32
-37 -60 -69 -27 -32 -61 -70 -75 -85 -14 -15 -36 -40 -50 -56 -52 -59 -244
-281 -294 -338 -57 -67 -128 -148 -136 -156 -3 -3 -27 -32 -55 -65 -27 -33
-57 -67 -65 -75 -8 -9 -33 -37 -55 -64 -22 -27 -49 -58 -60 -71 -25 -28 -86
-99 -209 -245 -54 -63 -110 -128 -125 -145 -15 -16 -98 -115 -186 -220 -193
-231 -255 -305 -310 -370 -67 -79 -167 -198 -206 -246 -20 -24 -98 -118 -173
-209 -75 -91 -142 -172 -149 -180 -7 -8 -41 -51 -77 -95 -36 -43 -72 -88 -82
-100 -9 -11 -77 -95 -152 -187 -75 -93 -197 -243 -272 -335 -75 -93 -143 -177
-152 -188 -10 -11 -35 -42 -57 -70 -22 -27 -46 -56 -53 -65 -6 -8 -89 -112
-183 -230 -93 -118 -176 -222 -182 -230 -24 -29 -400 -506 -423 -535 -13 -16
-51 -66 -86 -111 -35 -44 -74 -95 -88 -114 -14 -18 -34 -45 -46 -59 -12 -14
-99 -127 -194 -251 -96 -124 -205 -265 -243 -315 -168 -218 -776 -1029 -957
-1276 -58 -79 -121 -165 -140 -190 -19 -26 -42 -57 -50 -69 -8 -12 -36 -49
-61 -83 -25 -34 -139 -191 -252 -349 -163 -227 -203 -288 -189 -292 9 -2 76
-8 147 -11 72 -4 146 -8 165 -10 19 -1 94 -5 165 -9 72 -4 166 -9 210 -11 130
-7 321 -16 455 -20 69 -2 217 -7 330 -11 432 -16 1883 -9 2245 11 50 3 144 7
210 10 138 6 277 13 385 20 41 3 113 8 160 10 93 5 220 14 290 20 25 2 83 7
130 10 152 11 244 19 457 40 23 2 70 6 105 9 34 3 83 8 108 11 43 5 73 8 193
20 77 9 173 20 257 30 19 3 58 7 85 10 28 3 61 8 75 10 14 2 51 7 83 10 32 4
66 8 76 10 10 2 42 6 72 10 30 3 99 13 154 21 55 8 118 17 140 20 46 5 348 52
385 59 13 3 42 7 65 10 22 3 90 14 150 25 61 10 125 22 143 25 1231 213 2510
548 3637 952 189 68 339 124 360 133 11 5 72 29 135 54 111 43 205 81 487 199
186 78 582 258 743 337 225 111 463 230 505 253 22 12 94 50 160 86 344 182
758 431 1130 676 176 117 237 159 409 282 513 366 1039 820 1364 1177 l54 59
-39 13 c-21 6 -105 33 -188 59 -319 99 -607 190 -923 291 -221 70 -227 75
-130 89 36 6 93 17 253 51 50 10 63 13 110 24 28 6 57 13 65 15 209 45 796
227 965 300 17 7 57 23 90 36 341 130 844 386 1210 617 155 98 414 274 475
324 19 16 40 32 45 36 54 39 232 179 257 202 18 16 67 57 108 90 228 188 621
579 844 839 50 59 95 111 101 117 5 6 24 29 40 50 17 21 50 63 75 94 61 74
249 322 300 396 77 111 287 429 304 459 9 17 34 59 56 94 22 34 40 65 40 67 0
2 20 36 44 76 87 144 300 558 365 708 13 30 37 84 54 120 80 178 182 448 173
457 -2 3 -19 7 -38 9 -18 3 -44 7 -58 10 -14 3 -63 11 -110 19 -316 53 -822
200 -1065 309 -16 8 -64 28 -105 46 -169 71 -456 231 -604 337 -55 40 -59 52
-16 51 24 -1 183 13 190 17 3 1 34 6 70 10 36 4 67 8 70 10 3 2 26 6 50 10 80
12 342 83 455 124 378 135 738 335 1095 607 74 57 149 115 165 130 17 14 50
43 75 63 123 99 434 402 591 576 30 33 57 62 60 65 43 38 381 458 503 625 33
44 71 96 87 116 105 136 431 644 596 929 50 85 100 171 111 190 11 19 39 69
60 110 22 41 68 127 102 190 58 110 330 656 330 664 0 3 22 51 49 108 27 56
80 177 118 268 76 181 85 203 88 210 1 3 6 16 12 30 6 14 13 35 17 47 l7 21
-428 -3 c-953 -7 -1273 -8 -1275 -2 -2 3 31 43 73 89 230 253 441 509 664 808
128 171 442 636 513 760 11 19 43 73 70 120 45 75 123 214 215 380 63 114 297
591 297 605 0 3 15 38 34 78 85 185 213 519 302 787 44 134 152 522 169 610
20 99 21 103 31 175 4 33 8 62 9 65 1 3 5 34 9 70 4 36 9 76 11 90 2 14 9 54
14 90 5 36 13 85 16 110 10 75 24 167 30 200 2 8 6 44 10 80 4 36 9 74 11 85
4 20 8 47 24 160 15 110 20 145 30 215 5 36 12 83 15 105 3 23 7 50 9 60 2 11
7 49 12 85 4 36 8 67 9 70 1 3 5 32 9 65 4 32 10 68 12 79 3 18 20 138 29 204
3 31 24 171 30 212 3 14 7 48 10 75 3 28 14 106 25 175 10 69 21 145 25 170 6
50 16 117 20 141 2 8 6 40 9 70 3 30 8 63 10 75 2 12 7 45 11 74 4 29 8 60 10
69 3 15 12 84 21 146 3 27 20 144 29 205 2 14 6 45 10 70 3 25 8 56 10 70 2
14 7 43 9 65 6 40 42 299 52 365 2 19 12 85 20 145 8 61 17 121 19 135 2 14 9
61 15 106 6 44 12 90 14 101 3 11 7 44 11 74 3 30 10 81 15 114 15 96 18 118
50 345 17 118 33 226 35 240 2 14 7 49 10 79 4 30 8 62 10 71 2 9 6 41 10 71
3 30 10 68 15 86 4 17 6 33 4 36 -2 2 0 28 6 58 5 30 12 73 15 97 12 96 17
130 25 187 5 33 12 77 15 98 3 20 7 53 10 72 6 41 5 41 -26 16z"/>
<path d="M279 28788 c0 -24 -2 -65 -4 -93 -1 -27 -6 -132 -10 -232 -3 -100 -8
-208 -10 -240 -2 -32 -6 -128 -10 -213 -3 -85 -8 -193 -10 -240 -2 -47 -6
-152 -10 -235 -3 -82 -8 -190 -10 -240 -6 -119 -13 -288 -20 -460 -3 -77 -8
-174 -10 -215 -3 -41 -8 -147 -11 -235 -3 -88 -7 -189 -9 -225 -2 -36 -6 -139
-10 -230 -3 -91 -8 -196 -10 -235 -2 -38 -6 -140 -10 -225 -3 -85 -8 -186 -10
-225 -23 -461 -23 -633 0 -835 8 -65 25 -201 30 -230 2 -14 9 -54 14 -90 6
-36 13 -74 15 -85 2 -11 11 -54 19 -95 9 -41 18 -86 21 -100 9 -49 57 -246 70
-290 8 -25 22 -74 31 -110 106 -388 319 -913 534 -1315 82 -153 92 -170 179
-316 45 -75 82 -139 82 -141 0 -4 -83 10 -167 27 -27 6 -60 12 -128 25 -27 5
-61 12 -75 15 -14 3 -37 7 -51 10 -56 10 -344 66 -513 99 -99 20 -181 35 -182
33 -1 -1 2 -25 7 -52 6 -28 12 -61 15 -75 3 -14 14 -62 24 -107 11 -46 22 -93
24 -105 3 -13 12 -52 21 -88 9 -36 18 -72 20 -80 15 -62 84 -304 126 -440 249
-808 640 -1607 1007 -2060 29 -36 67 -83 85 -105 127 -157 363 -380 532 -502
189 -136 440 -261 640 -320 71 -20 71 -20 90 -22 28 -2 15 -17 -32 -38 -195
-84 -425 -150 -638 -183 -38 -6 -81 -13 -95 -15 -127 -20 -216 -26 -440 -29
-194 -3 -205 -4 -204 -22 3 -37 16 -129 20 -135 2 -4 6 -24 10 -45 9 -60 81
-347 115 -459 122 -402 295 -812 493 -1170 73 -131 342 -548 365 -565 4 -3 18
-21 31 -40 14 -19 30 -42 37 -50 203 -254 256 -313 461 -518 279 -278 580
-512 929 -724 180 -108 564 -301 699 -352 22 -7 71 -27 109 -42 l70 -28 -50
-8 c-27 -4 -70 -10 -95 -13 -25 -3 -63 -8 -85 -11 -22 -2 -56 -6 -75 -8 -19
-2 -71 -9 -115 -14 -156 -21 -219 -29 -305 -37 -25 -2 -59 -6 -75 -9 -17 -2
-55 -8 -85 -11 -30 -4 -57 -8 -59 -10 -4 -4 83 -140 158 -248 67 -95 298 -387
366 -463 6 -6 44 -49 85 -95 83 -94 479 -492 580 -584 36 -33 97 -87 134 -120
38 -33 74 -64 80 -70 54 -48 166 -141 291 -241 83 -65 152 -121 155 -124 3 -3
77 -58 165 -123 88 -64 165 -120 170 -125 14 -11 178 -124 300 -207 117 -79
451 -289 580 -364 50 -29 97 -56 105 -61 58 -35 152 -90 155 -90 2 0 122 -65
255 -138 74 -40 542 -274 640 -320 36 -16 110 -50 165 -75 55 -25 125 -56 155
-70 103 -47 444 -188 575 -238 72 -27 139 -54 150 -58 58 -25 245 -95 350
-131 66 -23 163 -57 215 -75 162 -57 240 -83 395 -130 83 -26 161 -50 175 -55
99 -35 801 -229 920 -255 8 -2 119 -29 245 -60 127 -31 316 -75 420 -97 105
-22 222 -46 260 -55 39 -8 79 -17 90 -19 11 -2 31 -6 45 -9 14 -3 50 -9 80
-15 61 -11 124 -24 180 -35 3 -1 25 -5 50 -9 25 -5 54 -10 65 -12 11 -2 49 -9
85 -14 36 -6 74 -12 85 -14 11 -2 47 -9 80 -15 33 -6 78 -13 100 -16 22 -3 54
-9 70 -12 17 -3 39 -7 50 -9 11 -1 52 -7 90 -14 39 -6 88 -14 110 -17 22 -2
98 -13 169 -24 71 -11 131 -17 133 -15 5 5 -103 272 -244 606 -115 273 -112
266 -156 365 -19 44 -72 166 -117 270 -45 105 -91 209 -102 233 -35 79 -160
356 -194 430 -19 41 -34 75 -34 77 0 2 -22 50 -49 107 -27 56 -59 126 -71 153
-13 28 -47 101 -76 163 -30 63 -54 115 -54 117 0 3 -89 189 -193 406 -30 63
-87 182 -127 264 -100 208 -488 986 -589 1180 -46 88 -115 221 -154 295 -102
197 -177 341 -197 375 -10 17 -39 71 -65 120 -26 50 -60 113 -75 140 -15 28
-49 91 -75 140 -96 179 -118 221 -155 285 -21 36 -53 94 -73 130 -19 36 -51
94 -72 130 -20 36 -52 92 -70 125 -101 186 -227 407 -573 1000 -129 222 -607
1008 -761 1252 -80 128 -157 251 -171 273 -97 154 -195 306 -281 435 -55 83
-103 158 -106 168 -3 9 -8 17 -12 17 -3 0 -17 20 -31 45 -14 25 -28 45 -32 45
-5 0 -8 4 -8 10 0 5 -24 43 -52 85 -29 41 -58 83 -63 93 -14 24 -89 136 -95
142 -3 3 -27 39 -54 80 -44 67 -342 500 -471 685 -181 259 -667 931 -757 1048
-47 60 -19 42 56 -35 38 -40 146 -154 241 -253 95 -99 188 -196 206 -217 19
-20 77 -82 129 -139 52 -56 103 -111 113 -123 10 -12 44 -48 75 -82 31 -33 91
-98 132 -144 41 -46 80 -88 85 -94 6 -6 48 -54 95 -106 47 -52 87 -97 90 -100
6 -6 153 -173 184 -210 12 -14 72 -83 135 -155 204 -233 332 -383 521 -610 41
-50 77 -92 80 -95 3 -3 39 -45 80 -95 41 -49 77 -92 80 -95 4 -3 44 -52 91
-110 46 -58 87 -107 90 -110 3 -3 72 -88 154 -190 81 -102 151 -187 155 -190
3 -3 25 -30 48 -60 44 -59 261 -336 353 -450 20 -25 87 -112 149 -195 63 -82
139 -182 169 -222 31 -39 105 -138 166 -220 60 -81 113 -152 117 -158 22 -27
59 -78 150 -203 54 -75 106 -146 114 -157 32 -43 257 -360 384 -540 124 -175
641 -945 737 -1095 22 -36 83 -130 134 -210 142 -223 399 -641 399 -650 0 -5
4 -10 8 -12 10 -4 298 -496 467 -798 145 -259 174 -313 260 -475 32 -60 78
-146 102 -190 56 -101 368 -726 452 -905 160 -342 338 -746 446 -1015 42 -104
83 -205 91 -223 9 -18 21 -50 29 -70 8 -25 15 -32 19 -22 5 13 82 318 91 360
2 8 17 74 35 145 17 72 34 141 36 155 3 14 9 39 14 55 4 17 16 66 25 110 9 44
26 118 37 165 11 47 22 96 24 110 3 14 16 79 30 145 14 66 28 131 30 145 2 14
11 57 19 95 8 39 17 86 20 105 3 19 8 42 10 50 4 14 69 364 78 425 3 17 12 73
21 125 8 52 17 113 21 134 3 21 7 48 10 60 2 12 7 39 10 61 3 22 10 69 16 105
6 36 13 81 15 100 2 19 6 46 9 60 6 30 11 68 20 135 4 28 8 64 11 80 2 17 6
53 9 80 3 28 8 63 11 79 2 15 7 51 9 80 3 28 7 62 10 76 2 14 7 48 10 75 3 28
10 86 15 130 5 44 12 112 15 150 3 39 8 86 10 105 2 19 7 64 10 100 3 36 8 86
10 113 14 144 13 132 30 382 2 39 7 111 10 160 3 50 7 122 9 160 26 413 27
1501 2 1815 -3 25 -7 104 -11 177 -4 72 -8 144 -10 160 -2 15 -6 66 -10 113
-3 47 -8 101 -10 120 -3 19 -7 71 -10 115 -4 44 -8 91 -10 105 -2 14 -6 50
-10 80 -3 30 -10 89 -15 130 -5 41 -12 98 -15 125 -9 83 -15 127 -25 185 -5
30 -11 71 -14 90 -2 19 -7 51 -10 70 -6 38 -15 96 -22 150 -2 19 -6 42 -9 50
-2 8 -7 33 -10 55 -4 22 -13 76 -21 120 -8 44 -22 114 -29 155 -22 114 -24
123 -61 295 -20 88 -44 196 -56 240 -11 44 -21 87 -23 95 -16 70 -38 160 -46
185 -5 17 -32 111 -60 210 -28 99 -62 216 -77 260 -14 44 -27 85 -28 90 -4 18
-112 329 -142 410 -140 372 -317 770 -460 1030 -112 203 -261 447 -280 459 -6
3 -40 -49 -77 -117 -157 -283 -353 -560 -524 -736 -56 -58 -104 -102 -107 -98
-3 3 -8 77 -10 164 -2 87 -6 176 -8 198 -3 22 -8 83 -11 135 -3 52 -8 105 -11
118 -2 13 -11 74 -19 135 -8 62 -17 123 -20 137 -10 47 -28 145 -31 171 -2 15
-17 82 -34 150 -17 68 -33 132 -35 142 -9 40 -73 255 -85 282 -5 11 -20 55
-34 98 -77 230 -255 613 -401 860 -173 295 -380 581 -609 842 -62 72 -357 370
-456 461 -87 80 -306 261 -410 338 -52 38 -97 72 -100 75 -7 8 -269 183 -295
197 -11 6 -48 27 -82 47 l-61 35 -32 -92 c-114 -322 -309 -687 -490 -918 -100
-127 -236 -270 -226 -236 15 45 21 279 11 397 -13 152 -17 187 -30 251 -3 14
-8 41 -11 60 -26 142 -108 401 -175 546 -10 24 -19 45 -19 48 0 22 -157 320
-238 451 -94 154 -278 425 -302 445 -3 3 -28 34 -55 70 -27 36 -60 79 -74 96
-161 192 -192 228 -311 354 -215 230 -472 479 -650 631 -41 35 -82 71 -90 79
-139 129 -762 611 -775 598 -2 -2 -64 -308 -89 -438 -2 -14 -34 -176 -71 -360
-37 -184 -69 -344 -71 -355 -35 -180 -31 -170 -57 -141 -12 13 -58 64 -102
112 -92 102 -295 313 -373 388 -30 28 -77 74 -106 101 -187 180 -478 408 -649
511 -27 16 -61 37 -75 46 -56 35 -311 158 -407 196 -156 62 -479 164 -610 193
-22 5 -58 13 -80 19 -22 6 -51 13 -65 16 -14 3 -38 9 -55 14 -39 12 -233 61
-264 67 -37 6 -111 25 -416 103 -154 39 -314 80 -355 90 -41 10 -190 50 -330
89 -140 39 -262 73 -270 76 -8 2 -67 20 -130 40 -63 19 -124 38 -136 40 -11 3
-108 34 -215 71 -544 184 -962 384 -1259 602 -68 50 -246 202 -345 295 -22 20
-43 37 -47 37 -5 0 -8 -19 -9 -42z"/>
<path d="M14476 8311 c-4 -5 -2 -12 3 -15 5 -4 12 -2 15 3 4 5 2 12 -3 15 -5
4 -12 2 -15 -3z"/>
</g>
</svg>
