<?xml version="1.0" encoding="UTF-8" standalone="no"?>
<svg
   xmlns:dc="http://purl.org/dc/elements/1.1/"
   xmlns:cc="http://creativecommons.org/ns#"
   xmlns:rdf="http://www.w3.org/1999/02/22-rdf-syntax-ns#"
   xmlns:svg="http://www.w3.org/2000/svg"
   xmlns="http://www.w3.org/2000/svg"
   xmlns:sodipodi="http://sodipodi.sourceforge.net/DTD/sodipodi-0.dtd"
   xmlns:inkscape="http://www.inkscape.org/namespaces/inkscape"
   enable-background="new 0 0 24 24"
   height="22"
   id="Layer_1"
   version="1.1"
   viewBox="0 0 22 22"
   width="22"
   xml:space="preserve"
   sodipodi:docname="Yelp_Icon.svg"
   inkscape:version="0.92.2 (5c3e80d, 2017-08-06)"><metadata
     id="metadata36"><rdf:RDF><cc:Work
         rdf:about=""><dc:format>image/svg+xml</dc:format><dc:type
           rdf:resource="http://purl.org/dc/dcmitype/StillImage" /><dc:title></dc:title></cc:Work></rdf:RDF></metadata><defs
     id="defs34" /><sodipodi:namedview
     pagecolor="#ffffff"
     bordercolor="#666666"
     borderopacity="1"
     objecttolerance="10"
     gridtolerance="10"
     guidetolerance="10"
     inkscape:pageopacity="0"
     inkscape:pageshadow="2"
     inkscape:window-width="1920"
     inkscape:window-height="1013"
     id="namedview32"
     showgrid="false"
     fit-margin-top="0"
     fit-margin-left="0"
     fit-margin-right="0"
     fit-margin-bottom="0"
     inkscape:zoom="34.166667"
     inkscape:cx="11"
     inkscape:cy="11"
     inkscape:window-x="-9"
     inkscape:window-y="-9"
     inkscape:window-maximized="1"
     inkscape:current-layer="Layer_1" /><g
     id="icon"
     transform="translate(-1,-1)"><circle
       cx="12"
       cy="12"
       r="11"
       id="circle24"
       style="fill:#e84934" /><path
       d="m 10.8941,13.3321 -3.698,1.2967 c -0.0276,0.0097 -0.0559,0.0143 -0.0836,0.0143 -0.1035,0 -0.2004,-0.0641 -0.2377,-0.1668 -0.434,-1.1982 -0.4338,-2.4039 4e-4,-3.5832 0.0232,-0.0629 0.0704,-0.114 0.1313,-0.1421 0.0608,-0.0282 0.1304,-0.031 0.1933,-0.0077 l 3.6499,1.3446 c 0.0417,0.0153 0.0785,0.0414 0.1069,0.0754 0.3213,0.3862 0.3368,0.7545 0.0459,1.0945 -0.0289,0.0339 -0.0663,0.0595 -0.1084,0.0743 z m 0.2929,-1.9493 c 0.0142,0.0195 0.0311,0.0369 0.0502,0.0515 0.1176,0.0904 0.2491,0.1382 0.3806,0.1382 0.2571,0 0.4799,-0.1774 0.5592,-0.463 0.0061,-0.022 0.023,-0.0448 0.023,-0.0676 V 5.0386 C 12.2,4.9164 12.0988,4.8117 11.9786,4.7899 11.6326,4.7271 11.2873,4.6953 10.9661,4.6953 9.3975,4.6953 8.3546,5.4454 7.6242,6.0989 7.5275,6.1854 7.5103,6.3312 7.5867,6.4361 Z m 0.9471,2.89 c -0.0573,-0.2008 -0.2133,-0.4402 -0.6315,-0.4402 -0.0878,0 -0.1767,0.01 -0.2443,0.0188 -0.0609,0.0079 -0.1168,0.0377 -0.1573,0.0838 l -2.4493,2.7855 c -0.0773,0.0879 -0.0841,0.2174 -0.0164,0.313 0.667,0.9418 1.6618,1.4193 2.9566,1.4193 0.1412,0 0.2886,-0.0056 0.4381,-0.0167 0.1351,-0.01 0.2383,-0.1246 0.234,-0.26 l -0.1202,-3.8421 c -7e-4,-0.0208 -0.004,-0.0415 -0.0097,-0.0614 z m 1.0358,-1.8075 c 0.0288,0.011 0.0592,0.0165 0.0899,0.0165 0.0135,0 0.027,-0.0011 0.0404,-0.0033 l 4.0218,-0.6512 c 0.0667,-0.0108 0.1262,-0.0477 0.1654,-0.1027 0.0392,-0.0549 0.0548,-0.1233 0.0433,-0.1898 C 17.2969,10.1791 16.4917,8.9541 15.377,8.2578 15.2654,8.188 15.1189,8.2158 15.0404,8.3213 l -2.3675,3.1804 c -0.0291,0.0391 -0.0463,0.0858 -0.0496,0.1345 -0.0261,0.4024 0.1577,0.6813 0.5466,0.8291 z m 4.1954,2.0666 -3.914,-1.1526 c -0.0412,-0.012 -0.0848,-0.0134 -0.1268,-0.0041 -0.4125,0.0926 -0.6103,0.4002 -0.5291,0.8227 0.0055,0.0284 0.0158,0.0558 0.0306,0.0808 l 2.0342,3.4436 c 0.0468,0.0793 0.1308,0.1242 0.2177,0.1242 0.0354,0 0.0713,-0.0074 0.1054,-0.023 1.0844,-0.4977 1.9643,-1.6116 2.3537,-2.9798 0.038,-0.1335 -0.0386,-0.2726 -0.1717,-0.3118 z"
       id="path26"
       inkscape:connector-curvature="0"
       style="fill:#ffffff" /><path
       d="M 4.2218,19.7782 C 6.2124,21.7688 8.9624,23 12,23 18.0751,23 23,18.0751 23,12 23,8.9624 21.7688,6.2124 19.7782,4.2218 Z"
       id="path28"
       inkscape:connector-curvature="0"
       style="opacity:0.1;fill:#231f20" /></g></svg>